<?xml version="1.0" encoding="UTF-8" standalone="no"?>
<!DOCTYPE svg PUBLIC "-//W3C//DTD SVG 1.1//EN"
 "http://www.w3.org/Graphics/SVG/1.1/DTD/svg11.dtd">
<!-- Generated by graphviz version 2.47.0 (20210316.0004)
 -->
<!-- Title: dependencies Pages: 1 -->
<svg width="1475pt" height="306pt"
 viewBox="0.00 0.00 1475.00 306.00" xmlns="http://www.w3.org/2000/svg" xmlns:xlink="http://www.w3.org/1999/xlink">
<g id="graph0" class="graph" transform="scale(1 1) rotate(0) translate(4 302)">
<title>dependencies</title>
<polygon fill="white" stroke="transparent" points="-4,4 -4,-302 1471,-302 1471,4 -4,4"/>
<text text-anchor="start" x="712.51" y="-42.4" font-family="Times-12" font-weight="bold" font-size="14.00">Legend</text>
<polygon fill="#ffffb3" stroke="transparent" points="499.5,-10 499.5,-30 519.5,-30 519.5,-10 499.5,-10"/>
<text text-anchor="start" x="523.13" y="-15.4" font-family="Times-12" font-size="14.00"> &#160;Declarations</text>
<polygon fill="#8dd3c7" stroke="transparent" points="612.5,-10 612.5,-30 632.5,-30 632.5,-10 612.5,-10"/>
<text text-anchor="start" x="636.23" y="-15.4" font-family="Times-12" font-size="14.00"> &#160;Module</text>
<polygon fill="#80b1d3" stroke="transparent" points="698.5,-10 698.5,-30 718.5,-30 718.5,-10 698.5,-10"/>
<text text-anchor="start" x="722.28" y="-15.4" font-family="Times-12" font-size="14.00"> &#160;Bootstrap</text>
<polygon fill="#fdb462" stroke="transparent" points="795.5,-10 795.5,-30 815.5,-30 815.5,-10 795.5,-10"/>
<text text-anchor="start" x="819.17" y="-15.4" font-family="Times-12" font-size="14.00"> &#160;Providers</text>
<polygon fill="#fb8072" stroke="transparent" points="891.5,-10 891.5,-30 911.5,-30 911.5,-10 891.5,-10"/>
<text text-anchor="start" x="915.23" y="-15.4" font-family="Times-12" font-size="14.00"> &#160;Exports</text>
<g id="clust1" class="cluster">
<title>cluster_AppModule</title>
<polygon fill="none" stroke="black" stroke-dasharray="1,5" points="8,-70 8,-290 506,-290 506,-70 8,-70"/>
</g>
<g id="clust2" class="cluster">
<title>cluster_AppModule_declarations</title>
<polygon fill="none" stroke="black" points="16,-78 16,-130 138,-130 138,-78 16,-78"/>
</g>
<g id="clust4" class="cluster">
<title>cluster_AppModule_imports</title>
<polygon fill="none" stroke="black" points="146,-78 146,-130 498,-130 498,-78 146,-78"/>
</g>
<g id="clust5" class="cluster">
<title>cluster_AppModule_exports</title>
<polygon fill="none" stroke="black" points="193,-230 193,-282 317,-282 317,-230 193,-230"/>
</g>
<g id="clust8" class="cluster">
<title>cluster_BodyModule</title>
<polygon fill="none" stroke="black" stroke-dasharray="1,5" points="514,-146 514,-214 1144,-214 1144,-146 514,-146"/>
</g>
<g id="clust9" class="cluster">
<title>cluster_BodyModule_declarations</title>
<polygon fill="none" stroke="black" points="662,-154 662,-206 790,-206 790,-154 662,-154"/>
</g>
<g id="clust11" class="cluster">
<title>cluster_BodyModule_imports</title>
<polygon fill="none" stroke="black" points="798,-154 798,-206 1136,-206 1136,-154 798,-154"/>
</g>
<g id="clust12" class="cluster">
<title>cluster_BodyModule_exports</title>
<polygon fill="none" stroke="black" points="522,-154 522,-206 654,-206 654,-154 522,-154"/>
</g>
<g id="clust15" class="cluster">
<title>cluster_FooterModule</title>
<polygon fill="none" stroke="black" stroke-dasharray="1,5" points="907,-222 907,-290 1203,-290 1203,-222 907,-222"/>
</g>
<g id="clust16" class="cluster">
<title>cluster_FooterModule_declarations</title>
<polygon fill="none" stroke="black" points="1061,-230 1061,-282 1195,-282 1195,-230 1061,-230"/>
</g>
<g id="clust19" class="cluster">
<title>cluster_FooterModule_exports</title>
<polygon fill="none" stroke="black" points="915,-230 915,-282 1053,-282 1053,-230 915,-230"/>
</g>
<g id="clust22" class="cluster">
<title>cluster_HeaderModule</title>
<polygon fill="none" stroke="black" stroke-dasharray="1,5" points="679,-70 679,-138 1459,-138 1459,-70 679,-70"/>
</g>
<g id="clust23" class="cluster">
<title>cluster_HeaderModule_declarations</title>
<polygon fill="none" stroke="black" points="837,-78 837,-130 1451,-130 1451,-78 837,-78"/>
</g>
<g id="clust29" class="cluster">
<title>cluster_HeaderModule_exports</title>
<polygon fill="none" stroke="black" points="687,-78 687,-130 829,-130 829,-78 687,-78"/>
</g>
<g id="clust32" class="cluster">
<title>cluster_MainModule</title>
<polygon fill="none" stroke="black" stroke-dasharray="1,5" points="619,-222 619,-290 899,-290 899,-222 619,-222"/>
</g>
<g id="clust33" class="cluster">
<title>cluster_MainModule_declarations</title>
<polygon fill="none" stroke="black" points="765,-230 765,-282 891,-282 891,-230 765,-230"/>
</g>
<g id="clust36" class="cluster">
<title>cluster_MainModule_exports</title>
<polygon fill="none" stroke="black" points="627,-230 627,-282 757,-282 757,-230 627,-230"/>
</g>
<!-- AppComponent -->
<g id="node1" class="node">
<title>AppComponent</title>
<polygon fill="#ffffb3" stroke="black" points="129.94,-122 24.06,-122 24.06,-86 129.94,-86 129.94,-122"/>
<text text-anchor="middle" x="77" y="-99.8" font-family="Times,serif" font-size="14.00">AppComponent</text>
</g>
<!-- AppModule -->
<g id="node2" class="node">
<title>AppModule</title>
<polygon fill="#8dd3c7" stroke="black" points="296.66,-198 293.66,-202 272.66,-202 269.66,-198 213.34,-198 213.34,-162 296.66,-162 296.66,-198"/>
<text text-anchor="middle" x="255" y="-175.8" font-family="Times,serif" font-size="14.00">AppModule</text>
</g>
<!-- AppComponent&#45;&gt;AppModule -->
<g id="edge1" class="edge">
<title>AppComponent&#45;&gt;AppModule</title>
<path fill="none" stroke="black" d="M77,-122.01C77,-144.49 77,-180 77,-180 77,-180 203.27,-180 203.27,-180"/>
<polygon fill="black" stroke="black" points="203.27,-183.5 213.27,-180 203.27,-176.5 203.27,-183.5"/>
</g>
<!-- AppComponent  -->
<g id="node6" class="node">
<title>AppComponent </title>
<polygon fill="#fb8072" stroke="black" points="309.44,-274 200.56,-274 200.56,-238 309.44,-238 309.44,-274"/>
<text text-anchor="middle" x="255" y="-251.8" font-family="Times,serif" font-size="14.00">AppComponent </text>
</g>
<!-- AppModule&#45;&gt;AppComponent  -->
<g id="edge5" class="edge">
<title>AppModule&#45;&gt;AppComponent </title>
<path fill="none" stroke="black" stroke-dasharray="5,2" d="M255,-198.01C255,-198.01 255,-227.85 255,-227.85"/>
<polygon fill="black" stroke="black" points="251.5,-227.85 255,-237.85 258.5,-227.85 251.5,-227.85"/>
</g>
<!-- CommonModule -->
<g id="node3" class="node">
<title>CommonModule</title>
<polygon fill="#8dd3c7" stroke="black" points="489.67,-122 486.67,-126 465.67,-126 462.67,-122 378.33,-122 378.33,-86 489.67,-86 489.67,-122"/>
<text text-anchor="middle" x="434" y="-99.8" font-family="Times,serif" font-size="14.00">CommonModule</text>
</g>
<!-- CommonModule&#45;&gt;AppModule -->
<g id="edge2" class="edge">
<title>CommonModule&#45;&gt;AppModule</title>
<path fill="none" stroke="black" d="M467.5,-122.01C467.5,-144.49 467.5,-180 467.5,-180 467.5,-180 306.73,-180 306.73,-180"/>
<polygon fill="black" stroke="black" points="306.73,-176.5 296.73,-180 306.73,-183.5 306.73,-176.5"/>
</g>
<!-- HeaderModule -->
<g id="node8" class="node">
<title>HeaderModule</title>
<polygon fill="#8dd3c7" stroke="black" points="1127.96,-198 1124.96,-202 1103.96,-202 1100.96,-198 1028.04,-198 1028.04,-162 1127.96,-162 1127.96,-198"/>
<text text-anchor="middle" x="1078" y="-175.8" font-family="Times,serif" font-size="14.00">HeaderModule</text>
</g>
<!-- CommonModule&#45;&gt;HeaderModule -->
<g id="edge19" class="edge">
<title>CommonModule&#45;&gt;HeaderModule</title>
<path fill="none" stroke="black" d="M445.17,-122.17C445.17,-126.05 445.17,-129 445.17,-129 445.17,-129 1078,-129 1078,-129 1078,-129 1078,-151.88 1078,-151.88"/>
<polygon fill="black" stroke="black" points="1074.5,-151.88 1078,-161.88 1081.5,-151.88 1074.5,-151.88"/>
</g>
<!-- MainModule -->
<g id="node9" class="node">
<title>MainModule</title>
<polygon fill="#8dd3c7" stroke="black" points="895.6,-198 892.6,-202 871.6,-202 868.6,-198 806.4,-198 806.4,-162 895.6,-162 895.6,-198"/>
<text text-anchor="middle" x="851" y="-175.8" font-family="Times,serif" font-size="14.00">MainModule</text>
</g>
<!-- CommonModule&#45;&gt;MainModule -->
<g id="edge23" class="edge">
<title>CommonModule&#45;&gt;MainModule</title>
<path fill="none" stroke="black" d="M400.5,-122.18C400.5,-135.04 400.5,-150 400.5,-150 400.5,-150 813.54,-150 813.54,-150 813.54,-150 813.54,-151.86 813.54,-151.86"/>
<polygon fill="black" stroke="black" points="810.04,-151.86 813.54,-161.86 817.04,-151.86 810.04,-151.86"/>
</g>
<!-- FooterModule -->
<g id="node10" class="node">
<title>FooterModule</title>
<polygon fill="#8dd3c7" stroke="black" points="1010.1,-198 1007.1,-202 986.1,-202 983.1,-198 913.9,-198 913.9,-162 1010.1,-162 1010.1,-198"/>
<text text-anchor="middle" x="962" y="-175.8" font-family="Times,serif" font-size="14.00">FooterModule</text>
</g>
<!-- CommonModule&#45;&gt;FooterModule -->
<g id="edge12" class="edge">
<title>CommonModule&#45;&gt;FooterModule</title>
<path fill="none" stroke="black" d="M422.83,-122.19C422.83,-130.28 422.83,-138 422.83,-138 422.83,-138 977.61,-138 977.61,-138 977.61,-138 977.61,-151.94 977.61,-151.94"/>
<polygon fill="black" stroke="black" points="974.11,-151.94 977.61,-161.94 981.11,-151.94 974.11,-151.94"/>
</g>
<!-- RouterModule -->
<g id="node4" class="node">
<title>RouterModule</title>
<polygon fill="#8dd3c7" stroke="black" points="359.65,-122 356.65,-126 335.65,-126 332.65,-122 262.35,-122 262.35,-86 359.65,-86 359.65,-122"/>
<text text-anchor="middle" x="311" y="-99.8" font-family="Times,serif" font-size="14.00">RouterModule</text>
</g>
<!-- RouterModule&#45;&gt;AppModule -->
<g id="edge3" class="edge">
<title>RouterModule&#45;&gt;AppModule</title>
<path fill="none" stroke="black" d="M279.5,-122.01C279.5,-122.01 279.5,-151.85 279.5,-151.85"/>
<polygon fill="black" stroke="black" points="276,-151.85 279.5,-161.85 283,-151.85 276,-151.85"/>
</g>
<!-- RouterModule&#45;&gt;HeaderModule -->
<g id="edge20" class="edge">
<title>RouterModule&#45;&gt;HeaderModule</title>
<path fill="none" stroke="black" d="M347.24,-122.21C347.24,-127.55 347.24,-132 347.24,-132 347.24,-132 1061.34,-132 1061.34,-132 1061.34,-132 1061.34,-151.85 1061.34,-151.85"/>
<polygon fill="black" stroke="black" points="1057.84,-151.85 1061.34,-161.85 1064.84,-151.85 1057.84,-151.85"/>
</g>
<!-- RouterModule&#45;&gt;MainModule -->
<g id="edge24" class="edge">
<title>RouterModule&#45;&gt;MainModule</title>
<path fill="none" stroke="black" d="M322.06,-122.25C322.06,-136.18 322.06,-153 322.06,-153 322.06,-153 809.99,-153 809.99,-153 809.99,-153 809.99,-153.88 809.99,-153.88"/>
<polygon fill="black" stroke="black" points="806.49,-151.84 809.99,-161.84 813.49,-151.84 806.49,-151.84"/>
</g>
<!-- RouterModule&#45;&gt;FooterModule -->
<g id="edge13" class="edge">
<title>RouterModule&#45;&gt;FooterModule</title>
<path fill="none" stroke="black" d="M334.65,-122.07C334.65,-131.46 334.65,-141 334.65,-141 334.65,-141 956.39,-141 956.39,-141 956.39,-141 956.39,-151.87 956.39,-151.87"/>
<polygon fill="black" stroke="black" points="952.89,-151.87 956.39,-161.87 959.89,-151.87 952.89,-151.87"/>
</g>
<!-- BodyModule -->
<g id="node5" class="node">
<title>BodyModule</title>
<polygon fill="#8dd3c7" stroke="black" points="243.89,-122 240.89,-126 219.89,-126 216.89,-122 154.11,-122 154.11,-86 243.89,-86 243.89,-122"/>
<text text-anchor="middle" x="199" y="-99.8" font-family="Times,serif" font-size="14.00">BodyModule</text>
</g>
<!-- BodyModule&#45;&gt;AppModule -->
<g id="edge4" class="edge">
<title>BodyModule&#45;&gt;AppModule</title>
<path fill="none" stroke="black" d="M217.57,-122.01C217.57,-122.01 217.57,-151.85 217.57,-151.85"/>
<polygon fill="black" stroke="black" points="214.07,-151.85 217.57,-161.85 221.07,-151.85 214.07,-151.85"/>
</g>
<!-- BodyComponent  -->
<g id="node11" class="node">
<title>BodyComponent </title>
<polygon fill="#fb8072" stroke="black" points="645.67,-198 530.33,-198 530.33,-162 645.67,-162 645.67,-198"/>
<text text-anchor="middle" x="588" y="-175.8" font-family="Times,serif" font-size="14.00">BodyComponent </text>
</g>
<!-- BodyModule&#45;&gt;BodyComponent  -->
<g id="edge10" class="edge">
<title>BodyModule&#45;&gt;BodyComponent </title>
<path fill="none" stroke="black" stroke-dasharray="5,2" d="M239.55,-122.01C239.55,-138.05 239.55,-159 239.55,-159 239.55,-159 588,-159 588,-159 588,-159 588,-159.29 588,-159.29"/>
<polygon fill="black" stroke="black" points="584.5,-151.92 588,-161.92 591.5,-151.92 584.5,-151.92"/>
</g>
<!-- BodyComponent -->
<g id="node7" class="node">
<title>BodyComponent</title>
<polygon fill="#ffffb3" stroke="black" points="781.67,-198 670.33,-198 670.33,-162 781.67,-162 781.67,-198"/>
<text text-anchor="middle" x="726" y="-175.8" font-family="Times,serif" font-size="14.00">BodyComponent</text>
</g>
<!-- BodyComponent&#45;&gt;BodyModule -->
<g id="edge6" class="edge">
<title>BodyComponent&#45;&gt;BodyModule</title>
<path fill="none" stroke="black" d="M682.77,-161.81C682.77,-158.46 682.77,-156 682.77,-156 682.77,-156 221.96,-156 221.96,-156 221.96,-156 221.96,-132.19 221.96,-132.19"/>
<polygon fill="black" stroke="black" points="225.46,-132.19 221.96,-122.19 218.46,-132.19 225.46,-132.19"/>
</g>
<!-- HeaderModule&#45;&gt;BodyModule -->
<g id="edge7" class="edge">
<title>HeaderModule&#45;&gt;BodyModule</title>
<path fill="none" stroke="black" d="M1044.68,-161.96C1044.68,-149.44 1044.68,-135 1044.68,-135 1044.68,-135 235.15,-135 235.15,-135 235.15,-135 235.15,-132.03 235.15,-132.03"/>
<polygon fill="black" stroke="black" points="238.65,-132.03 235.15,-122.03 231.65,-132.03 238.65,-132.03"/>
</g>
<!-- HeaderComponent  -->
<g id="node18" class="node">
<title>HeaderComponent </title>
<polygon fill="#fb8072" stroke="black" points="820.74,-122 695.26,-122 695.26,-86 820.74,-86 820.74,-122"/>
<text text-anchor="middle" x="758" y="-99.8" font-family="Times,serif" font-size="14.00">HeaderComponent </text>
</g>
<!-- HeaderModule&#45;&gt;HeaderComponent  -->
<g id="edge21" class="edge">
<title>HeaderModule&#45;&gt;HeaderComponent </title>
<path fill="none" stroke="black" stroke-dasharray="5,2" d="M1094.66,-161.72C1094.66,-146.05 1094.66,-126 1094.66,-126 1094.66,-126 817.08,-126 817.08,-126 817.08,-126 817.08,-125.62 817.08,-125.62"/>
<polygon fill="black" stroke="black" points="820.58,-132.17 817.08,-122.17 813.58,-132.17 820.58,-132.17"/>
</g>
<!-- MainModule&#45;&gt;BodyModule -->
<g id="edge8" class="edge">
<title>MainModule&#45;&gt;BodyModule</title>
<path fill="none" stroke="black" d="M832.9,-161.96C832.9,-154.25 832.9,-147 832.9,-147 832.9,-147 226.36,-147 226.36,-147 226.36,-147 226.36,-132.49 226.36,-132.49"/>
<polygon fill="black" stroke="black" points="229.86,-132.49 226.36,-122.49 222.86,-132.49 229.86,-132.49"/>
</g>
<!-- MainComponent  -->
<g id="node20" class="node">
<title>MainComponent </title>
<polygon fill="#fb8072" stroke="black" points="749.38,-274 634.62,-274 634.62,-238 749.38,-238 749.38,-274"/>
<text text-anchor="middle" x="692" y="-251.8" font-family="Times,serif" font-size="14.00">MainComponent </text>
</g>
<!-- MainModule&#45;&gt;MainComponent  -->
<g id="edge25" class="edge">
<title>MainModule&#45;&gt;MainComponent </title>
<path fill="none" stroke="black" stroke-dasharray="5,2" d="M832.11,-198.04C832.11,-210.56 832.11,-225 832.11,-225 832.11,-225 709.68,-225 709.68,-225 709.68,-225 709.68,-227.97 709.68,-227.97"/>
<polygon fill="black" stroke="black" points="706.18,-227.97 709.68,-237.97 713.18,-227.97 706.18,-227.97"/>
</g>
<!-- FooterModule&#45;&gt;BodyModule -->
<g id="edge9" class="edge">
<title>FooterModule&#45;&gt;BodyModule</title>
<path fill="none" stroke="black" d="M935.17,-161.58C935.17,-152.72 935.17,-144 935.17,-144 935.17,-144 230.76,-144 230.76,-144 230.76,-144 230.76,-132.13 230.76,-132.13"/>
<polygon fill="black" stroke="black" points="234.26,-132.13 230.76,-122.13 227.26,-132.13 234.26,-132.13"/>
</g>
<!-- FooterComponent  -->
<g id="node13" class="node">
<title>FooterComponent </title>
<polygon fill="#fb8072" stroke="black" points="1044.88,-274 923.12,-274 923.12,-238 1044.88,-238 1044.88,-274"/>
<text text-anchor="middle" x="984" y="-251.8" font-family="Times,serif" font-size="14.00">FooterComponent </text>
</g>
<!-- FooterModule&#45;&gt;FooterComponent  -->
<g id="edge14" class="edge">
<title>FooterModule&#45;&gt;FooterComponent </title>
<path fill="none" stroke="black" stroke-dasharray="5,2" d="M952.22,-198.01C952.22,-198.01 952.22,-227.85 952.22,-227.85"/>
<polygon fill="black" stroke="black" points="948.72,-227.85 952.22,-237.85 955.72,-227.85 948.72,-227.85"/>
</g>
<!-- FooterComponent -->
<g id="node12" class="node">
<title>FooterComponent</title>
<polygon fill="#ffffb3" stroke="black" points="1186.88,-274 1069.12,-274 1069.12,-238 1186.88,-238 1186.88,-274"/>
<text text-anchor="middle" x="1128" y="-251.8" font-family="Times,serif" font-size="14.00">FooterComponent</text>
</g>
<!-- FooterComponent&#45;&gt;FooterModule -->
<g id="edge11" class="edge">
<title>FooterComponent&#45;&gt;FooterModule</title>
<path fill="none" stroke="black" d="M1098.52,-237.85C1098.52,-225.73 1098.52,-212 1098.52,-212 1098.52,-212 981.14,-212 981.14,-212 981.14,-212 981.14,-208.24 981.14,-208.24"/>
<polygon fill="black" stroke="black" points="984.64,-208.24 981.14,-198.24 977.64,-208.24 984.64,-208.24"/>
</g>
<!-- HeaderComponent -->
<g id="node14" class="node">
<title>HeaderComponent</title>
<polygon fill="#ffffb3" stroke="black" points="1138.74,-122 1017.26,-122 1017.26,-86 1138.74,-86 1138.74,-122"/>
<text text-anchor="middle" x="1078" y="-99.8" font-family="Times,serif" font-size="14.00">HeaderComponent</text>
</g>
<!-- HeaderComponent&#45;&gt;HeaderModule -->
<g id="edge15" class="edge">
<title>HeaderComponent&#45;&gt;HeaderModule</title>
<path fill="none" stroke="black" d="M1111.32,-122.01C1111.32,-122.01 1111.32,-151.85 1111.32,-151.85"/>
<polygon fill="black" stroke="black" points="1107.82,-151.85 1111.32,-161.85 1114.82,-151.85 1107.82,-151.85"/>
</g>
<!-- BrandingBarComponent -->
<g id="node15" class="node">
<title>BrandingBarComponent</title>
<polygon fill="#ffffb3" stroke="black" points="998.65,-122 845.35,-122 845.35,-86 998.65,-86 998.65,-122"/>
<text text-anchor="middle" x="922" y="-99.8" font-family="Times,serif" font-size="14.00">BrandingBarComponent</text>
</g>
<!-- BrandingBarComponent&#45;&gt;HeaderModule -->
<g id="edge16" class="edge">
<title>BrandingBarComponent&#45;&gt;HeaderModule</title>
<path fill="none" stroke="black" d="M998.87,-104C1007.68,-104 1013.59,-104 1013.59,-104 1013.59,-104 1013.59,-180 1013.59,-180 1013.59,-180 1017.88,-180 1017.88,-180"/>
<polygon fill="black" stroke="black" points="1017.88,-183.5 1027.88,-180 1017.88,-176.5 1017.88,-183.5"/>
</g>
<!-- SearchBarComponent -->
<g id="node16" class="node">
<title>SearchBarComponent</title>
<polygon fill="#ffffb3" stroke="black" points="1442.63,-122 1303.37,-122 1303.37,-86 1442.63,-86 1442.63,-122"/>
<text text-anchor="middle" x="1373" y="-99.8" font-family="Times,serif" font-size="14.00">SearchBarComponent</text>
</g>
<!-- SearchBarComponent&#45;&gt;HeaderModule -->
<g id="edge17" class="edge">
<title>SearchBarComponent&#45;&gt;HeaderModule</title>
<path fill="none" stroke="black" d="M1373,-122.2C1373,-146.36 1373,-186 1373,-186 1373,-186 1138.04,-186 1138.04,-186"/>
<polygon fill="black" stroke="black" points="1138.04,-182.5 1128.04,-186 1138.04,-189.5 1138.04,-182.5"/>
</g>
<!-- UserBarComponent -->
<g id="node17" class="node">
<title>UserBarComponent</title>
<polygon fill="#ffffb3" stroke="black" points="1284.97,-122 1157.03,-122 1157.03,-86 1284.97,-86 1284.97,-122"/>
<text text-anchor="middle" x="1221" y="-99.8" font-family="Times,serif" font-size="14.00">UserBarComponent</text>
</g>
<!-- UserBarComponent&#45;&gt;HeaderModule -->
<g id="edge18" class="edge">
<title>UserBarComponent&#45;&gt;HeaderModule</title>
<path fill="none" stroke="black" d="M1171.98,-122.03C1171.98,-142.77 1171.98,-174 1171.98,-174 1171.98,-174 1138.02,-174 1138.02,-174"/>
<polygon fill="black" stroke="black" points="1138.02,-170.5 1128.02,-174 1138.02,-177.5 1138.02,-170.5"/>
</g>
<!-- MainComponent -->
<g id="node19" class="node">
<title>MainComponent</title>
<polygon fill="#ffffb3" stroke="black" points="883.38,-274 772.62,-274 772.62,-238 883.38,-238 883.38,-274"/>
<text text-anchor="middle" x="828" y="-251.8" font-family="Times,serif" font-size="14.00">MainComponent</text>
</g>
<!-- MainComponent&#45;&gt;MainModule -->
<g id="edge22" class="edge">
<title>MainComponent&#45;&gt;MainModule</title>
<path fill="none" stroke="black" d="M857.78,-237.99C857.78,-237.99 857.78,-208.15 857.78,-208.15"/>
<polygon fill="black" stroke="black" points="861.28,-208.15 857.78,-198.15 854.28,-208.15 861.28,-208.15"/>
</g>
</g>
</svg>
