<?xml version="1.0" encoding="UTF-8" standalone="no"?>
<!DOCTYPE svg PUBLIC "-//W3C//DTD SVG 1.1//EN"
 "http://www.w3.org/Graphics/SVG/1.1/DTD/svg11.dtd">
<!-- Generated by graphviz version 2.47.0 (20210316.0004)
 -->
<!-- Title: dependencies Pages: 1 -->
<svg width="514pt" height="284pt"
 viewBox="0.00 0.00 514.00 284.00" xmlns="http://www.w3.org/2000/svg" xmlns:xlink="http://www.w3.org/1999/xlink">
<g id="graph0" class="graph" transform="scale(1 1) rotate(0) translate(4 280)">
<title>dependencies</title>
<polygon fill="white" stroke="transparent" points="-4,4 -4,-280 510,-280 510,4 -4,4"/>
<text text-anchor="start" x="232.01" y="-42.4" font-family="Times-12" font-weight="bold" font-size="14.00">Legend</text>
<polygon fill="#ffffb3" stroke="transparent" points="19,-10 19,-30 39,-30 39,-10 19,-10"/>
<text text-anchor="start" x="42.63" y="-15.4" font-family="Times-12" font-size="14.00"> &#160;Declarations</text>
<polygon fill="#8dd3c7" stroke="transparent" points="132,-10 132,-30 152,-30 152,-10 132,-10"/>
<text text-anchor="start" x="155.73" y="-15.4" font-family="Times-12" font-size="14.00"> &#160;Module</text>
<polygon fill="#80b1d3" stroke="transparent" points="218,-10 218,-30 238,-30 238,-10 218,-10"/>
<text text-anchor="start" x="241.78" y="-15.4" font-family="Times-12" font-size="14.00"> &#160;Bootstrap</text>
<polygon fill="#fdb462" stroke="transparent" points="315,-10 315,-30 335,-30 335,-10 315,-10"/>
<text text-anchor="start" x="338.67" y="-15.4" font-family="Times-12" font-size="14.00"> &#160;Providers</text>
<polygon fill="#fb8072" stroke="transparent" points="411,-10 411,-30 431,-30 431,-10 411,-10"/>
<text text-anchor="start" x="434.73" y="-15.4" font-family="Times-12" font-size="14.00"> &#160;Exports</text>
<g id="clust1" class="cluster">
<title>cluster_BodyModule</title>
<polygon fill="none" stroke="black" stroke-dasharray="1,5" points="8,-70 8,-268 498,-268 498,-70 8,-70"/>
</g>
<g id="clust4" class="cluster">
<title>cluster_BodyModule_imports</title>
<polygon fill="none" stroke="black" points="152,-78 152,-130 490,-130 490,-78 152,-78"/>
</g>
<g id="clust5" class="cluster">
<title>cluster_BodyModule_exports</title>
<polygon fill="none" stroke="black" points="197,-208 197,-260 329,-260 329,-208 197,-208"/>
</g>
<g id="clust2" class="cluster">
<title>cluster_BodyModule_declarations</title>
<polygon fill="none" stroke="black" points="16,-78 16,-130 144,-130 144,-78 16,-78"/>
</g>
<!-- BodyComponent -->
<g id="node1" class="node">
<title>BodyComponent</title>
<polygon fill="#ffffb3" stroke="black" points="135.67,-122 24.33,-122 24.33,-86 135.67,-86 135.67,-122"/>
<text text-anchor="middle" x="80" y="-99.8" font-family="Times,serif" font-size="14.00">BodyComponent</text>
</g>
<!-- BodyModule -->
<g id="node2" class="node">
<title>BodyModule</title>
<polygon fill="#8dd3c7" stroke="black" points="307.89,-187 304.89,-191 283.89,-191 280.89,-187 218.11,-187 218.11,-151 307.89,-151 307.89,-187"/>
<text text-anchor="middle" x="263" y="-164.8" font-family="Times,serif" font-size="14.00">BodyModule</text>
</g>
<!-- BodyComponent&#45;&gt;BodyModule -->
<g id="edge1" class="edge">
<title>BodyComponent&#45;&gt;BodyModule</title>
<path fill="none" stroke="black" d="M80,-122.11C80,-141.34 80,-169 80,-169 80,-169 207.76,-169 207.76,-169"/>
<polygon fill="black" stroke="black" points="207.76,-172.5 217.76,-169 207.76,-165.5 207.76,-172.5"/>
</g>
<!-- BodyComponent  -->
<g id="node6" class="node">
<title>BodyComponent </title>
<polygon fill="#fb8072" stroke="black" points="320.67,-252 205.33,-252 205.33,-216 320.67,-216 320.67,-252"/>
<text text-anchor="middle" x="263" y="-229.8" font-family="Times,serif" font-size="14.00">BodyComponent </text>
</g>
<!-- BodyModule&#45;&gt;BodyComponent  -->
<g id="edge5" class="edge">
<title>BodyModule&#45;&gt;BodyComponent </title>
<path fill="none" stroke="black" stroke-dasharray="5,2" d="M263,-187.11C263,-187.11 263,-205.99 263,-205.99"/>
<polygon fill="black" stroke="black" points="259.5,-205.99 263,-215.99 266.5,-205.99 259.5,-205.99"/>
</g>
<!-- HeaderModule -->
<g id="node3" class="node">
<title>HeaderModule</title>
<polygon fill="#8dd3c7" stroke="black" points="481.96,-122 478.96,-126 457.96,-126 454.96,-122 382.04,-122 382.04,-86 481.96,-86 481.96,-122"/>
<text text-anchor="middle" x="432" y="-99.8" font-family="Times,serif" font-size="14.00">HeaderModule</text>
</g>
<!-- HeaderModule&#45;&gt;BodyModule -->
<g id="edge2" class="edge">
<title>HeaderModule&#45;&gt;BodyModule</title>
<path fill="none" stroke="black" d="M432,-122.11C432,-141.34 432,-169 432,-169 432,-169 318.29,-169 318.29,-169"/>
<polygon fill="black" stroke="black" points="318.29,-165.5 308.29,-169 318.29,-172.5 318.29,-165.5"/>
</g>
<!-- MainModule -->
<g id="node4" class="node">
<title>MainModule</title>
<polygon fill="#8dd3c7" stroke="black" points="363.6,-122 360.6,-126 339.6,-126 336.6,-122 274.4,-122 274.4,-86 363.6,-86 363.6,-122"/>
<text text-anchor="middle" x="319" y="-99.8" font-family="Times,serif" font-size="14.00">MainModule</text>
</g>
<!-- MainModule&#45;&gt;BodyModule -->
<g id="edge3" class="edge">
<title>MainModule&#45;&gt;BodyModule</title>
<path fill="none" stroke="black" d="M291.2,-122.11C291.2,-122.11 291.2,-140.99 291.2,-140.99"/>
<polygon fill="black" stroke="black" points="287.7,-140.99 291.2,-150.99 294.7,-140.99 287.7,-140.99"/>
</g>
<!-- FooterModule -->
<g id="node5" class="node">
<title>FooterModule</title>
<polygon fill="#8dd3c7" stroke="black" points="256.1,-122 253.1,-126 232.1,-126 229.1,-122 159.9,-122 159.9,-86 256.1,-86 256.1,-122"/>
<text text-anchor="middle" x="208" y="-99.8" font-family="Times,serif" font-size="14.00">FooterModule</text>
</g>
<!-- FooterModule&#45;&gt;BodyModule -->
<g id="edge4" class="edge">
<title>FooterModule&#45;&gt;BodyModule</title>
<path fill="none" stroke="black" d="M237.05,-122.11C237.05,-122.11 237.05,-140.99 237.05,-140.99"/>
<polygon fill="black" stroke="black" points="233.55,-140.99 237.05,-150.99 240.55,-140.99 233.55,-140.99"/>
</g>
</g>
</svg>
