<?xml version="1.0" encoding="UTF-8" standalone="no"?>
<!DOCTYPE svg PUBLIC "-//W3C//DTD SVG 1.1//EN"
 "http://www.w3.org/Graphics/SVG/1.1/DTD/svg11.dtd">
<!-- Generated by graphviz version 2.47.0 (20210316.0004)
 -->
<!-- Title: dependencies Pages: 1 -->
<svg width="906pt" height="284pt"
 viewBox="0.00 0.00 906.00 284.00" xmlns="http://www.w3.org/2000/svg" xmlns:xlink="http://www.w3.org/1999/xlink">
<g id="graph0" class="graph" transform="scale(1 1) rotate(0) translate(4 280)">
<title>dependencies</title>
<polygon fill="white" stroke="transparent" points="-4,4 -4,-280 902,-280 902,4 -4,4"/>
<text text-anchor="start" x="428.01" y="-42.4" font-family="Times-12" font-weight="bold" font-size="14.00">Legend</text>
<polygon fill="#ffffb3" stroke="transparent" points="215,-10 215,-30 235,-30 235,-10 215,-10"/>
<text text-anchor="start" x="238.63" y="-15.4" font-family="Times-12" font-size="14.00"> &#160;Declarations</text>
<polygon fill="#8dd3c7" stroke="transparent" points="328,-10 328,-30 348,-30 348,-10 328,-10"/>
<text text-anchor="start" x="351.73" y="-15.4" font-family="Times-12" font-size="14.00"> &#160;Module</text>
<polygon fill="#80b1d3" stroke="transparent" points="414,-10 414,-30 434,-30 434,-10 414,-10"/>
<text text-anchor="start" x="437.78" y="-15.4" font-family="Times-12" font-size="14.00"> &#160;Bootstrap</text>
<polygon fill="#fdb462" stroke="transparent" points="511,-10 511,-30 531,-30 531,-10 511,-10"/>
<text text-anchor="start" x="534.67" y="-15.4" font-family="Times-12" font-size="14.00"> &#160;Providers</text>
<polygon fill="#fb8072" stroke="transparent" points="607,-10 607,-30 627,-30 627,-10 607,-10"/>
<text text-anchor="start" x="630.73" y="-15.4" font-family="Times-12" font-size="14.00"> &#160;Exports</text>
<g id="clust1" class="cluster">
<title>cluster_HeaderModule</title>
<polygon fill="none" stroke="black" stroke-dasharray="1,5" points="8,-70 8,-268 890,-268 890,-70 8,-70"/>
</g>
<g id="clust2" class="cluster">
<title>cluster_HeaderModule_declarations</title>
<polygon fill="none" stroke="black" points="268,-78 268,-130 882,-130 882,-78 268,-78"/>
</g>
<g id="clust8" class="cluster">
<title>cluster_HeaderModule_exports</title>
<polygon fill="none" stroke="black" points="345,-208 345,-260 487,-260 487,-208 345,-208"/>
</g>
<g id="clust7" class="cluster">
<title>cluster_HeaderModule_imports</title>
<polygon fill="none" stroke="black" points="16,-78 16,-130 260,-130 260,-78 16,-78"/>
</g>
<!-- HeaderComponent -->
<g id="node1" class="node">
<title>HeaderComponent</title>
<polygon fill="#ffffb3" stroke="black" points="873.74,-122 752.26,-122 752.26,-86 873.74,-86 873.74,-122"/>
<text text-anchor="middle" x="813" y="-99.8" font-family="Times,serif" font-size="14.00">HeaderComponent</text>
</g>
<!-- HeaderModule -->
<g id="node5" class="node">
<title>HeaderModule</title>
<polygon fill="#8dd3c7" stroke="black" points="465.96,-187 462.96,-191 441.96,-191 438.96,-187 366.04,-187 366.04,-151 465.96,-151 465.96,-187"/>
<text text-anchor="middle" x="416" y="-164.8" font-family="Times,serif" font-size="14.00">HeaderModule</text>
</g>
<!-- HeaderComponent&#45;&gt;HeaderModule -->
<g id="edge1" class="edge">
<title>HeaderComponent&#45;&gt;HeaderModule</title>
<path fill="none" stroke="black" d="M813,-122.28C813,-143.32 813,-175 813,-175 813,-175 476.28,-175 476.28,-175"/>
<polygon fill="black" stroke="black" points="476.28,-171.5 466.28,-175 476.28,-178.5 476.28,-171.5"/>
</g>
<!-- BrandingBarComponent -->
<g id="node2" class="node">
<title>BrandingBarComponent</title>
<polygon fill="#ffffb3" stroke="black" points="733.65,-122 580.35,-122 580.35,-86 733.65,-86 733.65,-122"/>
<text text-anchor="middle" x="657" y="-99.8" font-family="Times,serif" font-size="14.00">BrandingBarComponent</text>
</g>
<!-- BrandingBarComponent&#45;&gt;HeaderModule -->
<g id="edge2" class="edge">
<title>BrandingBarComponent&#45;&gt;HeaderModule</title>
<path fill="none" stroke="black" d="M657,-122.02C657,-139.37 657,-163 657,-163 657,-163 476.23,-163 476.23,-163"/>
<polygon fill="black" stroke="black" points="476.23,-159.5 466.23,-163 476.23,-166.5 476.23,-159.5"/>
</g>
<!-- SearchBarComponent -->
<g id="node3" class="node">
<title>SearchBarComponent</title>
<polygon fill="#ffffb3" stroke="black" points="561.63,-122 422.37,-122 422.37,-86 561.63,-86 561.63,-122"/>
<text text-anchor="middle" x="492" y="-99.8" font-family="Times,serif" font-size="14.00">SearchBarComponent</text>
</g>
<!-- SearchBarComponent&#45;&gt;HeaderModule -->
<g id="edge3" class="edge">
<title>SearchBarComponent&#45;&gt;HeaderModule</title>
<path fill="none" stroke="black" d="M444.08,-122.11C444.08,-122.11 444.08,-140.99 444.08,-140.99"/>
<polygon fill="black" stroke="black" points="440.58,-140.99 444.08,-150.99 447.58,-140.99 440.58,-140.99"/>
</g>
<!-- UserBarComponent -->
<g id="node4" class="node">
<title>UserBarComponent</title>
<polygon fill="#ffffb3" stroke="black" points="403.97,-122 276.03,-122 276.03,-86 403.97,-86 403.97,-122"/>
<text text-anchor="middle" x="340" y="-99.8" font-family="Times,serif" font-size="14.00">UserBarComponent</text>
</g>
<!-- UserBarComponent&#45;&gt;HeaderModule -->
<g id="edge4" class="edge">
<title>UserBarComponent&#45;&gt;HeaderModule</title>
<path fill="none" stroke="black" d="M385,-122.11C385,-122.11 385,-140.99 385,-140.99"/>
<polygon fill="black" stroke="black" points="381.5,-140.99 385,-150.99 388.5,-140.99 381.5,-140.99"/>
</g>
<!-- HeaderComponent  -->
<g id="node8" class="node">
<title>HeaderComponent </title>
<polygon fill="#fb8072" stroke="black" points="478.74,-252 353.26,-252 353.26,-216 478.74,-216 478.74,-252"/>
<text text-anchor="middle" x="416" y="-229.8" font-family="Times,serif" font-size="14.00">HeaderComponent </text>
</g>
<!-- HeaderModule&#45;&gt;HeaderComponent  -->
<g id="edge7" class="edge">
<title>HeaderModule&#45;&gt;HeaderComponent </title>
<path fill="none" stroke="black" stroke-dasharray="5,2" d="M416,-187.11C416,-187.11 416,-205.99 416,-205.99"/>
<polygon fill="black" stroke="black" points="412.5,-205.99 416,-215.99 419.5,-205.99 412.5,-205.99"/>
</g>
<!-- CommonModule -->
<g id="node6" class="node">
<title>CommonModule</title>
<polygon fill="#8dd3c7" stroke="black" points="251.67,-122 248.67,-126 227.67,-126 224.67,-122 140.33,-122 140.33,-86 251.67,-86 251.67,-122"/>
<text text-anchor="middle" x="196" y="-99.8" font-family="Times,serif" font-size="14.00">CommonModule</text>
</g>
<!-- CommonModule&#45;&gt;HeaderModule -->
<g id="edge5" class="edge">
<title>CommonModule&#45;&gt;HeaderModule</title>
<path fill="none" stroke="black" d="M196,-122.02C196,-139.37 196,-163 196,-163 196,-163 355.8,-163 355.8,-163"/>
<polygon fill="black" stroke="black" points="355.8,-166.5 365.8,-163 355.8,-159.5 355.8,-166.5"/>
</g>
<!-- RouterModule -->
<g id="node7" class="node">
<title>RouterModule</title>
<polygon fill="#8dd3c7" stroke="black" points="121.65,-122 118.65,-126 97.65,-126 94.65,-122 24.35,-122 24.35,-86 121.65,-86 121.65,-122"/>
<text text-anchor="middle" x="73" y="-99.8" font-family="Times,serif" font-size="14.00">RouterModule</text>
</g>
<!-- RouterModule&#45;&gt;HeaderModule -->
<g id="edge6" class="edge">
<title>RouterModule&#45;&gt;HeaderModule</title>
<path fill="none" stroke="black" d="M73,-122.28C73,-143.32 73,-175 73,-175 73,-175 355.76,-175 355.76,-175"/>
<polygon fill="black" stroke="black" points="355.76,-178.5 365.76,-175 355.76,-171.5 355.76,-178.5"/>
</g>
</g>
</svg>
